<?xml version="1.0" encoding="utf-8"?>
<!-- Generator: Adobe Illustrator 25.2.3, SVG Export Plug-In . SVG Version: 6.00 Build 0)  -->
<svg version="1.1" id="Layer_1" xmlns="http://www.w3.org/2000/svg" xmlns:xlink="http://www.w3.org/1999/xlink" x="0px" y="0px"
	 viewBox="0 0 512 512" style="enable-background:new 0 0 512 512;" xml:space="preserve">
<style type="text/css">
	.st0{fill:#BABABA;}
</style>
<path id="Ubuntu" class="st0" d="M261,39.1C141.2,39.1,44.1,136.2,44.1,256S141.2,472.9,261,472.9S477.9,375.8,477.9,256
	S380.8,39.1,261,39.1z M307.1,120.4c7.7-13.3,24.8-17.9,38-10.2c13.4,7.7,17.9,24.8,10.2,38.1c-7.7,13.3-24.8,17.9-38,10.2
	C303.9,150.8,299.4,133.7,307.1,120.4z M120.5,283.9c-15.4,0-27.9-12.5-27.9-27.9s12.5-27.9,27.9-27.9s27.9,12.5,27.9,27.9
	S135.9,283.9,120.5,283.9z M145.1,286.6c19.5-15.7,19.6-45.4,0-61.1c7.5-28.7,25.5-53.1,49.4-69.2l20.7,34.6
	c-45,31.8-45,98.4,0,130.2l-20.7,34.6C170.6,339.7,152.7,315.2,145.1,286.6z M345.1,401.8c-13.4,7.7-30.4,3.1-38-10.2
	c-7.7-13.4-3.1-30.4,10.2-38.1c13.3-7.7,30.4-3.1,38,10.2C363.1,377.1,358.5,394.1,345.1,401.8z M345.4,341
	c-23.4-9-49.1,5.8-52.9,30.6c-4.5,1.2-42.8,12.5-84.6-8.2l19.7-35.2c49.9,23.2,107.9-10.2,112.7-65.1l40.3,0.6
	C378.6,293.9,365.5,321,345.4,341L345.4,341z M340.2,248.9c-4.7-54.2-62.4-88.5-112.7-65.1l-19.7-35.2c41.9-20.7,80-9.4,84.6-8.2
	c3.8,24.8,29.6,39.6,52.9,30.6c20.2,20,33.2,47.1,35.2,77.4L340.2,248.9L340.2,248.9z"/>
</svg>
