<?xml version="1.0" encoding="utf-8"?>
<!-- Generator: Adobe Illustrator 25.2.3, SVG Export Plug-In . SVG Version: 6.00 Build 0)  -->
<svg version="1.1" id="Layer_1" xmlns="http://www.w3.org/2000/svg" xmlns:xlink="http://www.w3.org/1999/xlink" x="0px" y="0px"
	 viewBox="0 0 512 512" style="enable-background:new 0 0 512 512;" xml:space="preserve">
<style type="text/css">
	.st0{fill:#BABABA;}
</style>
<path id="macOS" class="st0" d="M366.4,263.2c-0.2-34,15.2-59.6,46.3-78.5c-17.4-24.9-43.7-38.6-78.4-41.3
	c-32.9-2.6-68.8,19.2-81.9,19.2c-13.9,0-45.7-18.2-70.7-18.2C130,145.2,75.1,185.5,75.1,267.6c0,24.3,4.4,49.3,13.3,75.2
	c11.8,34,54.6,117.3,99.2,115.9c23.3-0.6,39.8-16.6,70.2-16.6c29.4,0,44.7,16.6,70.7,16.6c45-0.6,83.7-76.4,95-110.4
	C363.2,319.8,366.4,264.9,366.4,263.2L366.4,263.2z M314,111.2c25.3-30,23-57.3,22.2-67.1c-22.3,1.3-48.1,15.2-62.9,32.3
	c-16.2,18.3-25.7,41-23.7,66.6C273.9,144.8,295.9,132.4,314,111.2z"/>
</svg>
